# AST/ASF file generated using VICON BodyLanguage
# -----------------------------------------------
:version 1.10
:name VICON
:units
  mass 1.0
  length 0.45
  angle deg
:documentation
   .ast/.asf automatically generated from VICON data using
   VICON BodyBuilder and BodyLanguage model FoxedUp or BRILLIANT.MOD
:root
   order TX TY TZ RX RY RZ
   axis XYZ
   position 0 0 0  
   orientation 0 0 0 
:bonedata
  begin
     id 1 
     name lhipjoint
     direction 0.623529 -0.717805 0.309788 
     length 2.23224 
     axis 0 0 0  XYZ
  end
  begin
     id 2 
     name lfemur
     direction 0.34202 -0.939693 0  
     length 7.11402  
     axis 0 0 20  XYZ
    dof rx ry rz
    limits (-160.0 20.0)
           (-70.0 70.0)
           (-60.0 70.0)
  end
  begin
     id 3 
     name ltibia
     direction 0.34202 -0.939693 0   
     length 6.78496   
     axis 0 0 20   XYZ
    dof rx
    limits (-10.0 170.0)
  end
  begin
     id 4 
     name lfoot
     direction 0.125078 -0.343648 0.930732   
     length 1.84054   
     axis -90 7.62852e-016 20   XYZ
    dof rx rz
    limits (-45.0 90.0)
           (-70.0 20.0)
  end
  begin
     id 5 
     name ltoes
     direction 1.53565e-011 -4.21893e-011 1   
     length 0.916474   
     axis -90 7.62852e-016 20   XYZ
    dof rx
    limits (-90.0 20.0)
  end
  begin
     id 6 
     name rhipjoint
     direction -0.564688 -0.757748 0.327026   
     length 2.11457  
     axis 0 0 0  XYZ 
  end
  begin
     id 7 
     name rfemur
     direction -0.34202 -0.939693 0   
     length 7.14609   
     axis 0 0 -20   XYZ
    dof rx ry rz
    limits (-160.0 20.0)
           (-70.0 70.0)
           (-70.0 60.0)
  end
  begin
     id 8 
     name rtibia
     direction -0.34202 -0.939693 0   
     length 6.78101   
     axis 0 0 -20   XYZ
    dof rx
    limits (-10.0 170.0)
 end
 begin
     id 9 
     name rfoot
     direction -0.0992671 -0.272734 0.956955   
     length 1.96168  
     axis -90 -7.62852e-016 -20   XYZ
    dof rx rz
    limits (-45.0 90.0)
           (-20.0 70.0)
  end
  begin
     id 10 
     name rtoes
     direction -1.5356e-011 -4.21891e-011 1   
     length 0.982933   
     axis -90 -7.62852e-016 -20   XYZ
    dof rx
    limits (-90.0 20.0)
  end
  begin
     id 11 
     name lowerback
     direction -0.00596953 0.998668 0.0512524   
     length 1.87557   
     axis 0 0 0   XYZ
    dof rx ry rz
    limits (-20.0 45.0)
           (-30.0 30.0)
           (-30.0 30.0)
  end
  begin
     id 12 
     name upperback
     direction 0.00584879 0.999652 0.0257308   
     length 1.87883   
     axis 0 0 0   XYZ
    dof rx ry rz
    limits (-20.0 45.0)
           (-30.0 30.0)
           (-30.0 30.0)
  end
  begin
     id 13 
     name thorax
     direction 0.010104 0.999947 0.00178881   
     length 1.87779   
     axis 0 0 0   XYZ
    dof rx ry rz
    limits (-20.0 45.0)
           (-30.0 30.0)
           (-30.0 30.0)
  end
  begin
     id 14 
     name lowerneck
     direction 0.0120771 0.995934 -0.0892773   
     length 1.40897   
     axis 0 0 0   XYZ
    dof rx ry rz
    limits (-20.0 45.0)
           (-30.0 30.0)
           (-30.0 30.0)
  end
  begin
     id 15 
     name upperneck
     direction -0.030568 0.999465 -0.0116366   
     length 1.38661   
     axis 0 0 0   XYZ
    dof rx ry rz
    limits (-20.0 45.0)
           (-30.0 30.0)
           (-30.0 30.0)
  end
  begin
     id 16
     name head
     direction -0.0170715 0.999854 -0.00104426  
     length 1.47052  
     axis 0 0 0   XYZ
    dof rx ry rz
    limits (-20.0 45.0)
           (-30.0 30.0)
           (-30.0 30.0)
  end
  begin
     id 17 
     name lclavicle
     direction 0.977763 0.206143 0.038532  
     length 3.02424  
     axis 0 0 0   XYZ
    dof ry rz
    limits (-20.0 10.0)
           (0.0 20.0)
  end
  begin
     id 18 
     name lhumerus
     direction 1 -4.48965e-011 -2.62654e-027   
     length 4.68382   
     axis 180 -30 -90   XYZ
    dof rx ry rz
    limits (-60.0 90.0)
           (-90.0 90.0)
           (-90.0 90.0)
  end
  begin
     id 19
     name lradius
     direction 1 -4.48973e-011 -1.54954e-027   
     length 2.98124   
     axis 180 -30 -90   XYZ
    dof rx
    limits (-10.0 170.0)
  end
  begin
     id 20
     name lwrist
     direction 1 -4.48959e-011 7.20928e-028   
     length 1.49062   
     axis -5.52449e-016 90 90   XYZ
    dof ry
    limits (-180.0 0.0)
 end
  begin
     id 21 
     name lhand
     direction 1 -4.48971e-011 1.44186e-027   
     length 0.707595   
     axis -9.20027e-016 90 90   XYZ
    dof rx rz
    limits (-90.0 90.0)
           (-45.0 45.0)
  end
  begin
     id 22 
     name lfingers
     direction 1 -4.48985e-011 2.88371e-027   
     length 0.570481   
     axis -1.84005e-015 90 90   XYZ
    dof rx
    limits (0.0 90.0)
  end
  begin
     id 23
     name lthumb
     direction 0.707107 -6.34929e-011 0.707107   
     length 0.819101   
     axis -90 45 2.85299e-015   XYZ
    dof rx rz
    limits (-45.0 45.0)
           (-45.0 45.0)
  end
  begin
     id 24 
     name rclavicle
     direction -0.958661 0.284411 -0.00895327   
     length 3.11921  
     axis 0 0 0   XYZ 
    dof ry rz
    limits (-10.0 20.0)
           (-20.0 0.0)
  end
  begin
     id 25 
     name rhumerus
     direction -1 -4.48963e-011 -4.22193e-027  
     length 4.75876   
     axis 180 30 90   XYZ
    dof rx ry rz
    limits (-90.0 60.0)
           (-90.0 90.0)
           (-90.0 90.0)
  end
  begin
     id 26 
     name rradius
     direction -1 -4.48968e-011 -1.07616e-027   
     length 2.93293   
     axis 180 30 90   XYZ
    dof rx
    limits (-10.0 170.0)
  end
  begin
     id 27 
     name rwrist
     direction -1 -4.48965e-011 7.20928e-028   
     length 1.46647   
     axis -5.52449e-016 -90 -90   XYZ
    dof ry
    limits (-180.0 0.0)
  end
  begin
     id 28
     name rhand
     direction -1 -4.48971e-011 1.44186e-027   
     length 0.831748   
     axis -9.20027e-016 -90 -90   XYZ
    dof rx rz
    limits (-90.0 90.0)
           (-45.0 45.0)
  end
  begin
     id 29
     name rfingers
     direction -1 -4.48961e-011 2.88371e-027   
     length 0.670577   
     axis -1.84005e-015 -90 -90   XYZ
    dof rx
    limits (0.0 90.0)
  end
  begin
     id 30
     name rthumb
     direction -0.707107 -6.34929e-011 0.707107   
     length 0.962818   
     axis -90 -45 -2.85299e-015   XYZ
    dof rx rz
    limits (-45.0 45.0)
           (-45.0 45.0)
  end
:hierarchy
  begin
    root lhipjoint rhipjoint lowerback
    lhipjoint lfemur
    lfemur ltibia
    ltibia lfoot
    lfoot ltoes
    rhipjoint rfemur
    rfemur rtibia
    rtibia rfoot
    rfoot rtoes
    lowerback upperback
    upperback thorax
    thorax lowerneck lclavicle rclavicle
    lowerneck upperneck
    upperneck head
    lclavicle lhumerus
    lhumerus lradius
    lradius lwrist
    lwrist lhand lthumb
    lhand lfingers
    rclavicle rhumerus
    rhumerus rradius
    rradius rwrist
    rwrist rhand rthumb
    rhand rfingers
  end

#!OML:ASF E:\id_vita\Project 1\Capture day 1\Session 1\Female.ASF
:FULLY-SPECIFIED
:DEGREES
475
root -15.4941 16.3232 1.0491 -161.265 -56.2203 200.868
lowerback 8.93401 3.61696 -5.47063
upperback 3.81765 3.993 -3.3321
thorax -1.17157 1.8458 -0.78072
lowerneck -5.48976 7.6439 -1.82094
upperneck -21.4658 9.2965 -2.77411
head -5.57342 4.47624 -0.822818
rclavicle -1.90833e-014 -7.79236e-014
rhumerus -10.1186 36.1219 -106.457
rradius 68.2663
rwrist -24.032
rhand -8.06569 1.19705
rfingers 7.12502
rthumb 17.8456 -28.0041
lclavicle -1.90833e-014 -7.79236e-014
lhumerus 119.237 32.9556 231.199
lradius 9.9719
lwrist -116.36
lhand 2.86091 37.6933
lfingers 7.12502
lthumb 28.3276 65.5707
rfemur -49.1181 4.83087 19.0786
rtibia 34.9418
rfoot -10.3057 -3.91899
rtoes -21.1713
lfemur -59.875 -7.4445 8.6056
ltibia 28.6717
lfoot 2.07815 44.5236
ltoes 21.7674
476
root -15.421 16.3024 1.01779 -161.138 -56.367 200.961
lowerback 8.83213 3.59972 -5.5867
upperback 3.78932 3.96985 -3.34445
thorax -1.15097 1.83428 -0.721892
lowerneck -5.54751 7.50971 -2.29524
upperneck -21.4706 9.19794 -2.2434
head -5.61738 4.42974 -0.579317
rclavicle -6.36111e-015 4.29375e-014
rhumerus -9.85388 36.2494 -106.333
rradius 68.3949
rwrist -24.2304
rhand -7.97988 0.984078
rfingers 7.12502
rthumb 17.9282 -28.2096
lclavicle -6.36111e-015 4.29375e-014
lhumerus 118.242 33.3975 229.793
lradius 9.98184
lwrist -115.24
lhand 3.24338 37.9489
lfingers 7.12502
lthumb 28.6931 65.7651
rfemur -49.4387 4.60676 19.6105
rtibia 35.4655
rfoot -11.1984 -3.03081
rtoes -22.7061
lfemur -60.2564 -7.77738 9.60211
ltibia 28.6199
lfoot 1.59164 45.3701
ltoes 22.7469
477
root -15.3458 16.2825 0.987649 -160.854 -56.5332 200.859
lowerback 8.6793 3.65183 -5.71072
upperback 3.79895 4.04395 -3.34036
thorax -1.06744 1.869 -0.647433
lowerneck -5.90887 7.36475 -2.57381
upperneck -21.0808 9.04874 -2.04579
head -5.45873 4.37052 -0.446869
rclavicle -1.00187e-013 -4.6118e-014
rhumerus -9.55538 36.1424 -106.01
rradius 68.5733
rwrist -24.2386
rhand -7.91363 0.795174
rfingers 7.12502
rthumb 17.9919 -28.3926
lclavicle -1.00187e-013 -4.6118e-014
lhumerus 117.049 33.9179 228.459
lradius 10.0045
lwrist -114.334
lhand 3.48734 38.2165
lfingers 7.12502
lthumb 28.9261 65.9929
rfemur -49.8449 4.27142 20.1116
rtibia 36.0307
rfoot -12.2369 -2.21895
rtoes -24.6824
lfemur -60.6906 -7.99088 10.3205
ltibia 28.6334
lfoot 1.36441 46.0411
ltoes 23.1907
478
root -15.2711 16.2513 0.953765 -160.605 -56.7007 200.79
lowerback 8.53821 3.61385 -5.80492
upperback 3.82826 3.99478 -3.4407
thorax -0.956752 1.84055 -0.684446
lowerneck -6.12405 7.37827 -2.48518
upperneck -20.996 9.07111 -2.04439
head -5.3929 4.37388 -0.45058
rclavicle 6.67916e-014 1.00187e-013
rhumerus -9.19976 36.3214 -105.881
rradius 68.7465
rwrist -24.4052
rhand -8.10079 0.642309
rfingers 7.12502
rthumb 17.8119 -28.562
lclavicle 6.67916e-014 1.00187e-013
lhumerus 116.767 33.5907 228.359
lradius 9.90569
lwrist -114.593
lhand 3.13603 38.4481
lfingers 7.12502
lthumb 28.5905 66.2815
rfemur -50.1867 4.03033 20.5724
rtibia 36.5037
rfoot -12.643 -1.62359
rtoes -25.1417
lfemur -61.0813 -7.9808 10.8619
ltibia 28.5732
lfoot 1.62122 46.3509
ltoes 23.158
479
root -15.1992 16.2214 0.917878 -160.616 -56.9239 200.775
lowerback 8.62925 3.54434 -5.84418
upperback 3.88857 3.88426 -3.54542
thorax -0.935973 1.78116 -0.763251
lowerneck -6.11939 7.36319 -2.56137
upperneck -21.1272 9.09112 -1.75994
head -5.45301 4.36888 -0.354366
rclavicle -1.59028e-013 -1.25632e-013
rhumerus -8.83398 36.6762 -105.814
rradius 68.886
rwrist -24.8419
rhand -8.29247 0.597991
rfingers 7.12502
rthumb 17.6274 -28.6229
lclavicle -1.59028e-013 -1.25632e-013
lhumerus 116.59 33.2754 228.242
lradius 9.67002
lwrist -113.995
lhand 2.04343 38.9138
lfingers 7.12502
lthumb 27.5461 66.9184
rfemur -50.2466 3.72765 21.1663
rtibia 36.8744
rfoot -12.7146 -1.19143
rtoes -25.5375
lfemur -61.1293 -5.58667 8.70152
ltibia 28.4934
lfoot 3.67573 42.8188
ltoes 19.6441
480
root -15.1228 16.2092 0.881769 -161.02 -57.1994 200.961
lowerback 8.96924 3.54667 -5.73991
upperback 3.95979 3.85979 -3.57039
thorax -1.03991 1.76743 -0.861868
lowerneck -5.96385 7.25924 -2.75334
upperneck -21.3121 8.98538 -1.49442
head -5.55823 4.31334 -0.248674
rclavicle 5.56597e-014 1.11319e-013
rhumerus -8.67686 36.7222 -105.796
rradius 69.0632
rwrist -25.2161
rhand -8.4667 0.67482
rfingers 7.12502
rthumb 17.4597 -28.5611
lclavicle 5.56597e-014 1.11319e-013
lhumerus 116.315 32.9921 228.17
lradius 9.87708
lwrist -114.647
lhand 2.97685 38.4193
lfingers 7.12502
lthumb 28.4384 66.2783
rfemur -49.9777 3.53629 21.8031
rtibia 37.092
rfoot -13.1196 -0.779296
rtoes -25.6729
lfemur -61.4649 -10.6021 14.5212
ltibia 28.3795
lfoot -0.51478 49.6719
ltoes 25.1645
481
root -15.0443 16.1805 0.842151 -161.32 -57.4622 201.273
lowerback 9.06205 3.54646 -5.59628
upperback 3.98324 3.86154 -3.60614
thorax -1.05508 1.76916 -0.982862
lowerneck -5.733 7.21038 -2.78356
upperneck -21.5694 8.91889 -1.44267
head -5.68059 4.27781 -0.239855
rclavicle 1.08139e-013 4.29375e-014
rhumerus -8.57914 36.7165 -105.838
rradius 69.2254
rwrist -25.6055
rhand -8.88698 0.698388
rfingers 7.12502
rthumb 17.0552 -28.5729
lclavicle 1.08139e-013 4.29375e-014
lhumerus 115.915 32.6106 227.981
lradius 9.86022
lwrist -114.662
lhand 2.42651 38.7825
lfingers 7.12502
lthumb 27.9124 66.7281
rfemur -49.8752 3.53212 22.34
rtibia 37.2002
rfoot -13.5309 -0.535288
rtoes -24.2667
lfemur -61.9912 -12.8589 17.8044
ltibia 28.2401
lfoot -2.59732 52.7168
ltoes 27.5162
482
root -14.9656 16.1537 0.802279 -161.094 -57.6742 201.163
lowerback 8.98753 3.461 -5.68893
upperback 3.98714 3.73739 -3.7915
thorax -1.00024 1.70427 -1.10601
lowerneck -5.48332 7.23767 -2.6479
upperneck -21.9304 8.96482 -1.32064
head -5.83553 4.27574 -0.241736
rclavicle -4.77083e-015 -2.38542e-014
rhumerus -8.36313 36.9648 -106.001
rradius 69.465
rwrist -26.2473
rhand -9.37931 0.717256
rfingers 7.12502
rthumb 16.5813 -28.5944
lclavicle -4.77083e-015 -2.38542e-014
lhumerus 115.642 32.2166 227.672
lradius 9.75269
lwrist -114.936
lhand 1.83622 39.1059
lfingers 7.12502
lthumb 27.3479 67.1419
rfemur -49.9952 3.42449 22.7148
rtibia 37.1802
rfoot -13.7741 -0.805213
rtoes -23.4839
lfemur -62.3153 -12.9947 18.568
ltibia 28.0136
lfoot -2.12596 53.2788
ltoes 27.617
483
root -14.8815 16.1333 0.763303 -160.835 -57.9488 200.96
lowerback 9.02576 3.32952 -5.82693
upperback 4.01441 3.53628 -3.97726
thorax -0.984408 1.59941 -1.20264
lowerneck -5.3408 7.24395 -2.5225
upperneck -22.2869 8.97965 -1.19722
head -5.97251 4.25557 -0.235867
rclavicle 3.81667e-014 5.725e-014
rhumerus -8.09245 37.2807 -106.178
rradius 69.7423
rwrist -26.8723
rhand -9.69 0.926116
rfingers 7.12502
rthumb 16.2822 -28.4103
lclavicle 3.81667e-014 5.725e-014
lhumerus 115.442 31.8664 227.434
lradius 9.70436
lwrist -115.346
lhand 1.55405 39.0721
lfingers 7.12502
lthumb 27.078 67.1504
rfemur -50.1472 3.20748 23.1288
rtibia 37.0516
rfoot -13.831 -1.43159
rtoes -23.2716
lfemur -62.738 -13.5911 19.7097
ltibia 27.8574
lfoot -2.56036 54.5449
ltoes 27.9734
484
root -14.7969 16.1097 0.727537 -160.489 -58.2711 200.8
lowerback 8.92425 3.21109 -5.84211
upperback 3.99101 3.38187 -4.1196
thorax -0.9417 1.52246 -1.32093
lowerneck -5.22169 7.21419 -2.53304
upperneck -22.4623 8.95063 -1.1033
head -6.05298 4.23314 -0.211826
rclavicle 5.56597e-014 5.40694e-014
rhumerus -7.88728 37.4579 -106.261
rradius 69.9068
rwrist -27.2925
rhand -9.99572 1.24158
rfingers 7.12502
rthumb 15.9878 -28.1187
lclavicle 5.56597e-014 5.40694e-014
lhumerus 115.224 31.6265 227.334
lradius 9.66603
lwrist -115.553
lhand 1.59624 39.1707
lfingers 7.12502
lthumb 27.1184 67.2427
rfemur -50.4666 2.95065 23.5754
rtibia 36.7937
rfoot -13.8214 -2.01048
rtoes -22.3347
lfemur -63.364 -14.2586 21.1245
ltibia 27.7169
lfoot -3.6155 55.7965
ltoes 28.4559
485
root -14.7141 16.0939 0.690715 -160.49 -58.5866 200.816
lowerback 8.96648 3.18519 -5.77392
upperback 4.03306 3.3495 -4.13891
thorax -0.915647 1.50557 -1.37628
lowerneck -5.38552 7.10752 -2.74576
upperneck -22.2145 8.85192 -0.883998
head -5.96635 4.19396 -0.0949263
rclavicle -1.59028e-015 -8.11041e-014
rhumerus -7.73168 37.4434 -106.103
rradius 70.1422
rwrist -27.64
rhand -10.1481 1.2096
rfingers 7.12502
rthumb 15.8411 -28.1623
lclavicle -1.59028e-015 -8.11041e-014
lhumerus 114.929 31.423 227.41
lradius 9.66317
lwrist -115.789
lhand 1.52062 39.3529
lfingers 7.12502
lthumb 27.046 67.4361
rfemur -50.5896 2.64654 24.2567
rtibia 36.4831
rfoot -13.8106 -2.79637
rtoes -22.3113
lfemur -63.6131 -14.401 21.7469
ltibia 27.5754
lfoot -4.58295 56.1136
ltoes 29.0146
486
root -14.6271 16.0775 0.646457 -161.162 -58.9226 201.318
lowerback 9.2155 3.2298 -5.47392
upperback 4.19211 3.41389 -4.08963
thorax -0.874593 1.53533 -1.50617
lowerneck -5.71437 6.93234 -3.01196
upperneck -21.8072 8.68248 -0.55014
head -5.80815 4.11887 0.0775485
rclavicle -2.38542e-014 -3.18055e-014
rhumerus -7.47289 37.1573 -105.855
rradius 70.4064
rwrist -28.1521
rhand -9.78263 1.12106
rfingers 7.12502
rthumb 16.193 -28.2226
lclavicle -2.38542e-014 -3.18055e-014
lhumerus 114.361 31.1074 227.353
lradius 9.73486
lwrist -116.037
lhand 1.41594 39.5703
lfingers 7.12502
lthumb 26.9459 67.6691
rfemur -50.4148 2.34871 25.3487
rtibia 36.2248
rfoot -13.8361 -3.91618
rtoes -24.1047
lfemur -63.6483 -14.8381 22.8345
ltibia 27.4523
lfoot -5.87951 56.7312
ltoes 29.5387
487
root -14.5364 16.0454 0.600806 -161.897 -59.3444 202.148
lowerback 9.23062 3.2079 -5.00805
upperback 4.28852 3.42911 -4.07433
thorax -0.757714 1.54643 -1.7473
lowerneck -6.00711 6.86687 -2.65349
upperneck -21.4995 8.5643 -0.771536
head -5.63305 4.05295 -0.0279418
rclavicle 3.97569e-014 -1.90833e-014
rhumerus -7.20863 36.7638 -105.801
rradius 70.599
rwrist -28.6319
rhand -9.262 1.45509
rfingers 7.12502
rthumb 16.6942 -27.8471
lclavicle 3.97569e-014 -1.90833e-014
lhumerus 113.759 30.726 227.098
lradius 9.81797
lwrist -116.427
lhand 1.51529 39.6884
lfingers 7.12502
lthumb 27.0409 67.7725
rfemur -50.4812 2.10298 26.5403
rtibia 36.1094
rfoot -14.0064 -4.80089
rtoes -25
lfemur -64.0291 -15.3895 24.6802
ltibia 27.3231
lfoot -6.77488 57.6599
ltoes 30.0368
